<?xml version="1.0" standalone="no"?>
<!DOCTYPE svg PUBLIC "-//W3C//DTD SVG 20010904//EN"
 "http://www.w3.org/TR/2001/REC-SVG-20010904/DTD/svg10.dtd">
<svg version="1.0" xmlns="http://www.w3.org/2000/svg"
 width="1536.000000pt" height="1024.000000pt" viewBox="0 0 1536.000000 1024.000000"
 preserveAspectRatio="xMidYMid meet">

<g transform="translate(0.000000,1024.000000) scale(0.100000,-0.100000)"
fill="#000000" stroke="none">
<path d="M5158 6551 c-151 -48 -267 -164 -304 -303 -7 -29 -14 -95 -14 -146 0
-89 -1 -95 -27 -120 -33 -31 -673 -617 -815 -745 -61 -55 -104 -103 -117 -130
-39 -80 -23 -174 41 -243 53 -57 109 -78 192 -72 84 7 114 27 212 135 44 48
158 172 255 275 198 210 189 192 189 362 0 115 17 158 83 203 l40 28 271 5
271 6 63 34 c159 85 240 268 198 445 l-12 50 -127 -125 c-71 -69 -136 -129
-146 -133 -34 -16 -129 12 -171 50 -42 37 -57 73 -62 141 -2 42 -1 44 120 165
67 67 122 126 122 130 0 15 -204 6 -262 -12z m-1018 -1446 c36 -19 50 -43 50
-87 0 -44 -22 -74 -65 -88 -66 -22 -135 25 -135 93 0 77 78 119 150 82z"/>
<path d="M6112 6300 c-18 -11 -41 -34 -51 -51 l-19 -31 -103 -1 -104 -2 -3
-32 -3 -33 109 0 108 0 16 -33 c28 -60 123 -85 188 -52 91 47 86 203 -7 241
-46 20 -93 17 -131 -6z m117 -76 c12 -15 21 -32 21 -39 0 -26 -41 -65 -69 -65
-54 0 -83 61 -50 103 28 36 70 36 98 1z"/>
<path d="M2999 6287 c-18 -12 -39 -34 -46 -47 -10 -19 -13 -180 -13 -698 0
-730 -1 -716 55 -760 27 -22 32 -22 456 -22 236 0 429 4 429 8 0 4 -16 24 -36
43 -45 43 -83 115 -91 174 l-6 45 -313 0 -314 0 0 580 0 580 790 0 790 0 0 60
0 60 -834 0 -833 0 -34 -23z"/>
<path d="M5962 5960 c-18 -11 -41 -34 -51 -51 l-19 -32 -92 2 c-99 2 -120 -6
-120 -45 0 -24 1 -24 108 -24 l108 0 11 -30 c24 -63 133 -91 199 -51 34 21 64
75 64 115 0 102 -120 169 -208 116z m118 -77 c52 -66 -40 -143 -100 -83 -27
27 -25 56 5 85 32 33 68 32 95 -2z"/>
<path d="M7394 5786 c-43 -19 -64 -53 -64 -104 0 -36 6 -49 30 -72 37 -35 73
-44 116 -30 99 33 114 158 24 205 -35 18 -65 18 -106 1z"/>
<path d="M9260 5255 l0 -515 65 0 65 0 0 515 0 515 -65 0 -65 0 0 -515z"/>
<path d="M6520 5250 l0 -510 105 0 104 0 -2 215 -3 215 203 0 203 0 0 75 0 75
-204 0 -203 0 -2 135 -2 135 255 0 256 0 0 85 0 85 -355 0 -355 0 0 -510z"/>
<path d="M8500 5250 l0 -510 70 0 70 0 0 230 0 230 225 0 225 0 0 55 0 55
-225 0 -225 0 0 175 0 175 250 0 250 0 0 50 0 50 -320 0 -320 0 0 -510z"/>
<path d="M4920 5711 c-19 -10 -45 -33 -57 -51 l-23 -33 -1 -496 c-1 -273 -1
-518 1 -546 2 -57 23 -99 63 -129 27 -20 41 -21 328 -24 277 -3 302 -1 343 16
33 15 48 30 65 64 21 44 21 53 21 570 l0 525 -23 43 c-41 78 -49 80 -387 80
-268 0 -299 -2 -330 -19z m450 -71 c0 -6 -45 -10 -115 -10 -70 0 -115 4 -115
10 0 6 45 10 115 10 70 0 115 -4 115 -10z m198 -485 c1 -220 0 -415 -3 -432
l-6 -33 -319 0 -320 0 0 428 c0 236 3 432 7 435 4 4 149 6 322 5 l316 -3 3
-400z m-241 -561 c10 -27 -14 -37 -87 -37 -73 0 -97 10 -87 37 5 13 23 16 87
16 64 0 82 -3 87 -16z"/>
<path d="M7340 5103 l0 -363 95 0 95 0 0 363 0 362 -95 1 -95 1 0 -364z"/>
<path d="M7630 5459 c0 -4 4 -10 9 -13 5 -4 62 -78 126 -166 l116 -160 -92
-128 c-51 -70 -109 -149 -129 -177 -20 -27 -40 -56 -44 -62 -6 -10 17 -13 101
-13 l108 1 79 124 c43 69 82 125 85 125 3 0 41 -57 84 -125 l78 -125 111 0
110 0 -26 35 c-15 19 -76 105 -136 192 l-109 156 33 46 c18 25 72 99 119 165
48 65 87 121 87 125 0 3 -45 5 -101 5 l-101 -2 -75 -112 -74 -112 -33 54 c-72
118 -100 163 -102 167 -6 7 -224 7 -224 0z"/>
<path d="M9730 5448 c-94 -32 -168 -107 -200 -203 -32 -95 -32 -224 0 -310 29
-76 102 -155 173 -186 77 -34 231 -39 308 -10 138 52 219 181 219 351 0 124
-43 225 -125 298 -59 52 -119 73 -225 78 -70 4 -97 0 -150 -18z m237 -109 c83
-40 124 -124 126 -256 1 -72 -3 -88 -29 -139 -52 -104 -148 -145 -261 -113
-61 17 -124 79 -146 144 -33 97 -16 240 37 309 56 74 182 99 273 55z"/>
<path d="M10243 5455 c2 -5 50 -152 106 -325 56 -173 108 -331 114 -350 l13
-35 76 -3 77 -3 36 118 c91 293 133 417 138 403 4 -8 37 -116 76 -240 97 -314
77 -280 164 -280 l73 0 52 163 c29 89 82 252 117 361 36 110 64 200 62 201 -1
0 -32 -1 -69 -3 l-66 -4 -25 -81 c-14 -45 -51 -171 -84 -279 -32 -109 -60
-198 -63 -198 -4 0 -44 126 -90 280 l-84 281 -69 -3 -69 -3 -50 -165 c-84
-283 -119 -392 -124 -387 -3 2 -42 129 -88 282 l-82 276 -72 2 c-45 1 -71 -2
-69 -8z"/>
<path d="M4539 5003 c-8 -9 -81 -77 -163 -152 l-150 -136 -204 -5 -205 -5 -12
-48 c-14 -55 -54 -102 -99 -116 -17 -6 -67 -15 -111 -21 -142 -19 -174 -34
-159 -75 9 -22 1309 -23 1317 0 14 34 -25 54 -149 79 -66 13 -133 31 -147 41
-30 19 -67 108 -67 160 l0 35 180 0 180 0 0 130 0 130 -99 0 c-79 0 -101 -3
-112 -17z"/>
</g>
</svg>
