<?xml version="1.0" standalone="no"?>
<!DOCTYPE svg PUBLIC "-//W3C//DTD SVG 20010904//EN"
 "http://www.w3.org/TR/2001/REC-SVG-20010904/DTD/svg10.dtd">
<svg version="1.0" xmlns="http://www.w3.org/2000/svg"
 width="1536.000000pt" height="1024.000000pt" viewBox="0 0 1536.000000 1024.000000"
 preserveAspectRatio="xMidYMid meet">

<g transform="translate(0.000000,1024.000000) scale(0.100000,-0.100000)"
fill="#000000" stroke="none">
<path d="M3906 6283 l3 -118 35 -3 36 -3 0 120 0 121 -38 0 -38 0 2 -117z"/>
<path d="M4060 6280 l0 -120 40 0 40 0 0 120 0 120 -40 0 -40 0 0 -120z"/>
<path d="M4211 6280 l-2 -120 41 0 40 0 0 120 0 120 -39 0 -39 0 -1 -120z"/>
<path d="M4370 6280 l0 -120 40 0 40 0 0 120 0 120 -40 0 -40 0 0 -120z"/>
<path d="M3424 6281 c-62 -38 -69 -123 -14 -176 28 -27 30 -33 30 -107 0 -132
26 -160 155 -168 l80 -5 3 -37 3 -38 -83 -1 c-46 -1 -119 0 -163 1 l-80 1 -56
56 c-49 47 -57 61 -62 101 -4 35 -12 53 -36 74 -70 63 -167 21 -178 -76 -5
-40 -2 -48 25 -76 27 -27 37 -30 89 -30 59 0 59 0 118 -61 83 -85 96 -89 275
-89 l151 0 -3 -37 -3 -38 -137 -5 -137 -5 -71 -74 -72 -73 -26 32 c-22 25 -37
33 -74 37 -44 5 -50 3 -84 -31 -34 -34 -36 -40 -31 -83 7 -64 49 -103 110
-103 55 1 68 9 185 118 l100 92 121 0 121 0 0 -54 c0 -65 -4 -67 -107 -65
-121 3 -143 -25 -143 -185 0 -90 -3 -107 -18 -118 -60 -42 -54 -151 9 -184 59
-30 131 -6 155 51 19 46 8 88 -31 124 -31 28 -33 32 -34 110 -2 115 3 121 94
121 l74 0 3 -114 3 -114 53 46 53 47 2 401 c2 323 5 404 16 417 12 15 46 17
305 17 l292 0 17 53 c9 30 17 57 17 60 0 11 -646 8 -673 -2 -39 -15 -66 -51
-83 -109 l-16 -54 -58 4 c-78 6 -90 17 -90 87 0 48 4 61 25 81 40 37 51 89 30
134 -30 62 -93 82 -151 47z m78 -58 c36 -33 12 -92 -32 -78 -12 4 -26 18 -33
32 -10 22 -8 28 12 44 28 23 30 23 53 2z m-344 -285 c7 -7 12 -21 12 -33 0
-47 -62 -63 -81 -21 -22 47 33 90 69 54z m28 -543 c16 -24 16 -27 -1 -45 -23
-25 -47 -25 -70 0 -15 17 -16 24 -7 45 16 34 56 34 78 0z m326 -411 c22 -47
-24 -83 -63 -48 -21 19 -25 60 -6 67 32 13 58 6 69 -19z"/>
<path d="M4835 6286 c-75 -20 -103 -33 -172 -82 -126 -90 -187 -219 -181 -384
l3 -91 -195 -192 c-107 -106 -283 -277 -391 -380 -171 -164 -198 -194 -209
-232 -24 -84 15 -177 90 -215 44 -22 140 -27 187 -9 15 6 197 179 404 385
l375 375 54 -12 c31 -7 96 -9 152 -7 88 4 106 9 172 42 179 88 255 228 242
445 -3 57 -8 107 -11 109 -2 3 -57 -45 -120 -107 -64 -61 -130 -120 -148 -131
-55 -34 -157 -20 -210 28 -52 47 -72 147 -43 215 7 18 63 80 123 139 73 72
105 109 95 113 -25 9 -166 3 -217 -9z m-834 -1305 c17 -17 29 -40 29 -55 0
-34 -38 -75 -77 -82 -27 -5 -37 -1 -64 25 -26 27 -30 37 -25 64 7 39 48 77 82
77 15 0 38 -12 55 -29z"/>
<path d="M5320 6200 l65 -59 161 -1 c144 0 164 -2 185 -19 l24 -19 3 -512 c2
-375 -1 -516 -9 -526 -9 -11 -53 -14 -210 -14 l-199 0 0 -130 0 -130 203 0
c253 0 290 13 332 113 13 31 15 116 15 609 0 363 -4 587 -10 610 -14 50 -55
97 -105 119 -35 16 -68 19 -280 18 l-240 0 65 -59z m260 -1259 c16 -32 2 -51
-39 -52 -20 0 -45 -2 -56 -4 -39 -8 -55 4 -55 41 l0 34 70 0 c58 0 71 -3 80
-19z"/>
<path d="M3860 5580 c0 -187 3 -340 8 -340 4 0 120 114 259 253 l251 252 4 88
4 87 -263 0 -263 0 0 -340z"/>
<path d="M7243 5885 c-58 -25 -87 -99 -59 -153 35 -67 109 -91 176 -57 81 42
79 170 -4 209 -41 19 -70 20 -113 1z"/>
<path d="M6310 5335 l0 -535 110 0 110 0 0 225 0 225 224 0 225 0 3 85 3 85
-227 0 -228 0 0 130 0 130 268 2 267 3 3 93 3 92 -380 0 -381 0 0 -535z"/>
<path d="M8420 5345 l0 -525 73 -2 72 -2 -75 -6 -75 -6 78 -2 77 -2 0 230 0
230 228 0 228 0 -1 63 0 62 -227 3 -228 2 0 175 0 175 255 0 255 0 0 65 0 65
-330 0 -330 0 0 -525z m57 509 c-3 -3 -12 -4 -19 -1 -8 3 -5 6 6 6 11 1 17 -2
13 -5z m146 -1 c-23 -2 -64 -2 -90 0 -26 2 -7 3 42 3 50 0 71 -1 48 -3z m245
0 c-10 -2 -28 -2 -40 0 -13 2 -5 4 17 4 22 1 32 -1 23 -4z m165 0 c-7 -2 -21
-2 -30 0 -10 3 -4 5 12 5 17 0 24 -2 18 -5z m37 -3 c0 -5 -2 -10 -4 -10 -3 0
-8 5 -11 10 -3 6 -1 10 4 10 6 0 11 -4 11 -10z m-633 -42 c-3 -8 -6 -5 -6 6
-1 11 2 17 5 13 3 -3 4 -12 1 -19z m580 -434 c-3 -3 -12 -4 -19 -1 -8 3 -5 6
6 6 11 1 17 -2 13 -5z"/>
<path d="M9180 5335 l0 -535 75 0 75 0 -2 528 c-1 290 -5 487 -8 437 l-6 -90
-2 88 c-1 61 -6 87 -14 88 -7 1 -2 5 12 9 17 6 2 8 -52 9 l-78 1 0 -535z m88
518 c-10 -2 -28 -2 -40 0 -13 2 -5 4 17 4 22 1 32 -1 23 -4z m-5 -1036 l62 -3
-67 -2 -68 -2 2 523 3 522 2 -517 3 -517 63 -4z m54 555 c-1 -53 -3 -7 -3 103
0 110 2 154 3 97 2 -57 2 -147 0 -200z m0 -259 c-2 -32 -3 -8 -3 52 0 61 1 87
3 58 2 -29 2 -78 0 -110z m0 -185 c-2 -24 -4 -5 -4 42 0 47 2 66 4 43 2 -24 2
-62 0 -85z m0 -85 c-3 -10 -5 -4 -5 12 0 17 2 24 5 18 2 -7 2 -21 0 -30z"/>
<path d="M9684 5542 c-77 -27 -184 -118 -169 -143 5 -8 4 -10 -4 -5 -7 5 -21
-13 -39 -51 -21 -46 -27 -76 -30 -146 -5 -101 4 -161 20 -151 7 4 8 3 4 -5
-10 -16 3 -53 16 -45 7 4 8 2 4 -4 -4 -6 -2 -22 5 -34 15 -30 90 -108 104
-108 5 0 1 7 -9 15 -11 8 -15 15 -9 15 14 0 35 -25 27 -33 -8 -8 61 -41 119
-57 62 -17 218 -8 272 15 52 22 97 54 90 64 -2 5 5 17 18 27 18 16 19 16 8 2
-7 -10 -9 -18 -3 -18 16 0 64 69 56 82 -4 6 -3 8 3 5 15 -10 46 67 38 94 -4
16 -3 20 3 11 7 -10 11 -5 16 18 16 82 0 194 -39 270 -24 47 -84 120 -98 120
-7 -1 2 -12 18 -26 20 -18 23 -22 8 -15 -23 12 -38 29 -38 46 0 5 -26 23 -58
39 -53 27 -69 30 -170 33 -88 2 -123 -1 -163 -15z m76 4 c0 -3 -4 -8 -10 -11
-5 -3 -10 -1 -10 4 0 6 5 11 10 11 6 0 10 -2 10 -4z m137 -2 c-3 -3 -12 -4
-19 -1 -8 3 -5 6 6 6 11 1 17 -2 13 -5z m-182 -14 c-11 -5 -29 -8 -40 -8 -16
0 -15 2 5 8 34 11 60 11 35 0z m-125 -53 c0 -2 -12 -14 -27 -28 l-28 -24 24
28 c23 25 31 32 31 24z m345 -72 c27 -13 52 -22 57 -19 5 3 7 0 6 -8 -2 -7 3
-12 10 -10 6 1 11 -3 10 -10 -2 -7 2 -12 9 -13 6 0 15 -4 20 -9 5 -5 3 -6 -4
-2 -17 9 -16 4 4 -39 9 -19 19 -31 22 -26 13 20 10 -139 -3 -183 -34 -113
-103 -166 -227 -176 -43 -3 -75 -2 -73 2 5 8 -14 12 -44 11 -7 -1 -11 1 -8 4
8 9 -43 45 -53 38 -11 -6 -25 13 -26 35 0 8 -5 14 -10 13 -6 -1 -11 6 -12 15
-1 9 -7 37 -13 62 -10 40 -10 71 3 202 1 9 3 15 5 13 3 -2 18 14 34 36 61 85
195 114 293 64z m239 -41 c3 -8 2 -12 -4 -9 -6 3 -10 10 -10 16 0 14 7 11 14
-7z m25 -69 c0 -5 -4 -3 -9 5 -5 8 -9 22 -9 30 0 16 17 -16 18 -35z m8 -37
c-3 -8 -6 -5 -6 6 -1 11 2 17 5 13 3 -3 4 -12 1 -19z m-750 -20 c-3 -8 -6 -5
-6 6 -1 11 2 17 5 13 3 -3 4 -12 1 -19z m760 -110 c-2 -18 -4 -4 -4 32 0 36 2
50 4 33 2 -18 2 -48 0 -65z m-640 20 c-2 -13 -4 -5 -4 17 -1 22 1 32 4 23 2
-10 2 -28 0 -40z m520 10 c-3 -7 -5 -2 -5 12 0 14 2 19 5 13 2 -7 2 -19 0 -25z
m-25 -110 c-8 -8 -9 -4 -5 13 4 13 8 18 11 10 2 -7 -1 -18 -6 -23z m-552 -98
c0 -5 -2 -10 -4 -10 -3 0 -8 5 -11 10 -3 6 -1 10 4 10 6 0 11 -4 11 -10z m31
-37 c13 -16 12 -17 -3 -4 -10 7 -18 15 -18 17 0 8 8 3 21 -13z m222 -120 c-7
-2 -19 -2 -25 0 -7 3 -2 5 12 5 14 0 19 -2 13 -5z"/>
<path d="M7190 5175 l0 -375 105 0 105 0 0 375 0 375 -105 0 -105 0 0 -375z"/>
<path d="M7512 5523 c14 -16 78 -99 143 -185 84 -113 115 -162 108 -170 -6 -7
-74 -93 -151 -190 l-142 -178 129 0 130 0 81 115 c44 63 82 115 83 115 1 0 38
-52 82 -115 l80 -114 128 -1 c115 0 147 7 117 25 -9 6 -285 355 -285 361 0 5
148 196 222 287 l64 77 -124 0 -123 0 -78 -105 c-43 -58 -80 -105 -82 -105 -2
0 -35 47 -74 105 l-70 105 -132 0 -132 0 26 -27z"/>
<path d="M10250 5463 c16 -48 63 -193 105 -322 43 -128 80 -229 84 -223 3 6 7
-6 7 -26 1 -20 6 -49 12 -64 11 -27 14 -28 86 -28 l75 0 61 186 c34 102 59
192 56 200 -3 8 -2 13 2 10 5 -3 16 19 26 49 9 30 18 55 20 55 2 0 18 -47 36
-105 19 -60 37 -102 43 -98 6 3 7 1 3 -5 -10 -17 36 -155 47 -139 5 7 6 4 2
-10 -7 -26 4 -75 16 -67 5 3 6 -1 3 -9 -2 -7 0 -26 5 -41 11 -26 12 -27 91
-24 l81 3 64 195 c36 110 62 204 59 215 -3 13 -2 16 3 8 6 -8 28 45 61 145 29
87 52 163 52 170 0 8 -22 12 -73 12 l-74 0 -77 -257 c-48 -160 -75 -266 -71
-278 6 -16 5 -17 -4 -5 -9 12 -11 11 -11 -7 0 -52 -18 -14 -63 135 -27 86 -65
210 -84 275 -20 65 -40 113 -43 106 -6 -8 -9 -8 -15 1 -4 7 -1 16 6 21 9 6 -9
8 -51 7 l-64 -3 -48 -150 c-28 -87 -45 -160 -43 -175 4 -19 3 -21 -3 -6 -6 14
-17 -9 -43 -97 -19 -64 -36 -117 -39 -117 -3 0 -23 62 -45 137 -21 75 -58 198
-80 272 l-42 136 -81 3 -81 3 29 -88z m130 61 c0 -8 -4 -12 -10 -9 -5 3 -10
10 -10 16 0 5 5 9 10 9 6 0 10 -7 10 -16z m365 6 c3 -5 1 -10 -4 -10 -6 0 -11
5 -11 10 0 6 2 10 4 10 3 0 8 -4 11 -10z m485 0 c0 -5 -4 -10 -10 -10 -5 0
-10 5 -10 10 0 6 5 10 10 10 6 0 10 -4 10 -10z m37 4 c-3 -3 -12 -4 -19 -1 -8
3 -5 6 6 6 11 1 17 -2 13 -5z m72 -6 c-1 -19 -37 -115 -38 -102 -1 6 5 29 13
50 7 22 11 45 9 52 -3 6 0 12 6 12 6 0 11 -6 10 -12z m-149 -85 c-11 -17 -11
-17 -6 0 3 10 7 26 7 35 1 15 2 15 6 0 2 -10 -1 -25 -7 -35z m-480 -10 c-11
-17 -11 -17 -6 0 3 10 7 26 7 35 1 15 2 15 6 0 2 -10 -1 -25 -7 -35z m-421
-33 c0 -10 -3 -8 -9 5 -12 27 -12 43 0 25 5 -8 9 -22 9 -30z m139 -50 c0 -9
-3 -7 -8 5 -5 11 -8 29 -8 40 0 16 2 15 8 -5 4 -14 8 -32 8 -40z m712 -77
c-11 -17 -11 -17 -6 0 3 10 7 26 7 35 1 15 2 15 6 0 2 -10 -1 -25 -7 -35z
m-173 -145 c-3 -8 -6 -5 -6 6 -1 11 2 17 5 13 3 -3 4 -12 1 -19z m110 -60 c-3
-8 -6 -5 -6 6 -1 11 2 17 5 13 3 -3 4 -12 1 -19z m-430 -150 c-3 -8 -6 -5 -6
6 -1 11 2 17 5 13 3 -3 4 -12 1 -19z m-101 -98 c34 0 65 5 67 10 3 6 4 5 3 -2
-4 -18 -146 -24 -146 -6 0 7 -2 24 -5 38 -3 15 0 12 7 -7 11 -33 12 -33 74
-33z m474 -3 l55 -3 -62 -2 c-54 -2 -63 0 -63 16 0 11 3 13 8 5 4 -6 32 -13
62 -16z m90 3 c0 -5 -8 -10 -17 -10 -15 0 -16 2 -3 10 19 12 20 12 20 0z"/>
<path d="M5188 5411 l-67 -46 -1 -247 c0 -234 -1 -248 -19 -258 -13 -6 -167
-10 -432 -10 l-412 0 -76 -75 -76 -75 503 0 c541 0 544 0 600 53 51 48 52 55
53 388 1 171 -1 312 -3 313 -1 2 -33 -17 -70 -43z"/>
<path d="M4554 5148 c-112 -110 -204 -205 -204 -210 0 -4 153 -8 340 -8 l340
0 0 210 0 210 -136 0 -135 0 -205 -202z m256 188 c0 -2 -13 -6 -29 -8 -17 -2
-28 -1 -25 4 5 8 54 12 54 4z m133 -3 c-13 -2 -35 -2 -50 0 -16 2 -5 4 22 4
28 0 40 -2 28 -4z m74 -40 c-3 -10 -5 -4 -5 12 0 17 2 24 5 18 2 -7 2 -21 0
-30z m-297 -7 c0 -2 -8 -10 -17 -17 -16 -13 -17 -12 -4 4 13 16 21 21 21 13z
m297 -123 c-3 -10 -5 -4 -5 12 0 17 2 24 5 18 2 -7 2 -21 0 -30z m0 -100 c-3
-10 -5 -2 -5 17 0 19 2 27 5 18 2 -10 2 -26 0 -35z m-487 33 c0 -2 -8 -10 -17
-17 -16 -13 -17 -12 -4 4 13 16 21 21 21 13z m487 -88 c-3 -8 -6 -5 -6 6 -1
11 2 17 5 13 3 -3 4 -12 1 -19z m-577 -1 c0 -2 -12 -14 -27 -28 l-28 -24 24
28 c23 25 31 32 31 24z m577 -39 c-3 -8 -6 -5 -6 6 -1 11 2 17 5 13 3 -3 4
-12 1 -19z"/>
</g>
</svg>
